# xmcd CD database file
#
# Track frame offsets:
#	150
#	19947
#	35397
#	54591
#	65936
#
# Disc length: 1142 seconds
#
# Revision: 1
# Processed by: cddbd v1.5.1PL2 Copyright (c) Steve Scherf et al.
# Submitted via: jetAudio 5
#
DISCID=43047405
DTITLE=The Division Group - The Division Group
DYEAR=1900
DGENRE=
TTITLE0=Truly
TTITLE1=Gravity
TTITLE2=Roses
TTITLE3=Retrograde
TTITLE4=Fall From Grace
EXTD=
EXTT0=
EXTT1=
EXTT2=
EXTT3=
EXTT4=
PLAYORDER=
